<svg preserveAspectRatio="none" overflow="visible" style="display: block;" width="14.16" height="14.16" viewBox="0 0 14.16 14.16" fill="none" xmlns="http://www.w3.org/2000/svg">
<g id="mdi:bell-notification">
<path id="Vector" d="M12.3902 3.83511C12.3902 4.97381 11.4639 5.90011 10.3252 5.90011C9.18646 5.90011 8.26016 4.97381 8.26016 3.83511C8.26016 2.69641 9.18646 1.77011 10.3252 1.77011C11.4639 1.77011 12.3902 2.69641 12.3902 3.83511ZM11.2102 6.95621C10.9152 7.03291 10.6202 7.08011 10.3252 7.08011C9.46501 7.07855 8.64053 6.73617 8.03232 6.12795C7.4241 5.51973 7.08172 4.69526 7.08016 3.83511C7.08016 2.96781 7.42236 2.18311 7.96516 1.59901C7.85808 1.46776 7.72308 1.36205 7.56998 1.28958C7.41688 1.21711 7.24954 1.17972 7.08016 1.18011C6.43116 1.18011 5.90016 1.71111 5.90016 2.36011V2.53121C4.14786 3.05041 2.95016 4.66111 2.95016 6.49011V10.0301L1.77016 11.2101V11.8001H12.3902V11.2101L11.2102 10.0301V6.95621ZM7.08016 13.5701C7.73506 13.5701 8.26016 13.045 8.26016 12.3901H5.90016C5.90016 12.7031 6.02448 13.0032 6.24577 13.2245C6.46706 13.4458 6.7672 13.5701 7.08016 13.5701Z" fill="#024E44"/>
</g>
</svg>
